<?xml version="1.0" standalone="no"?>
<!DOCTYPE svg PUBLIC "-//W3C//DTD SVG 20010904//EN"
 "http://www.w3.org/TR/2001/REC-SVG-20010904/DTD/svg10.dtd">
<svg version="1.0" xmlns="http://www.w3.org/2000/svg"
 width="512.000000pt" height="512.000000pt" viewBox="0 0 512.000000 512.000000"
 preserveAspectRatio="xMidYMid meet">

<g transform="translate(0.000000,512.000000) scale(0.100000,-0.100000)"
fill="#000000" stroke="none">
<path d="M1375 4219 c-536 -67 -1015 -618 -1220 -1404 -131 -498 -135 -984
-11 -1329 55 -153 107 -237 216 -346 110 -110 185 -157 320 -202 85 -28 111
-31 245 -36 171 -5 260 8 375 57 213 89 422 302 672 686 98 149 209 338 428
728 85 152 159 275 164 274 9 -3 232 -371 393 -647 322 -555 573 -865 805
-998 193 -111 498 -138 715 -63 341 118 543 447 582 953 9 124 0 410 -19 563
-68 553 -290 1068 -599 1388 -129 134 -235 214 -366 277 -146 71 -224 91 -385
97 -115 4 -148 2 -225 -16 -113 -27 -247 -92 -356 -172 -104 -77 -278 -250
-388 -389 -46 -58 -87 -106 -90 -108 -4 -1 -49 48 -101 109 -280 329 -544 509
-827 563 -103 19 -241 26 -328 15z m2420 -449 c408 -141 716 -713 786 -1463
15 -162 7 -457 -16 -546 -38 -153 -119 -262 -224 -302 -79 -29 -204 -24 -281
12 -156 73 -292 261 -875 1204 -82 132 -186 298 -232 368 -46 70 -83 132 -83
136 0 5 34 57 76 117 209 299 371 441 559 490 69 19 214 11 290 -16z m-2196
-100 c200 -38 388 -193 635 -524 36 -49 66 -93 66 -97 0 -8 -536 -844 -672
-1048 -208 -311 -342 -462 -463 -522 -59 -29 -81 -34 -159 -37 -118 -5 -184
18 -257 89 -105 102 -152 267 -151 529 2 630 255 1270 598 1516 127 91 259
121 403 94z"/>
</g>
</svg>
